<svg width="81" height="81" viewBox="0 0 81 81" fill="none" xmlns="http://www.w3.org/2000/svg">
<g clip-path="url(#clip0_2024_65)" filter="url(#filter0_i_2024_65)">
<path d="M9.02 0H1C0.447715 0 0 0.447715 0 1V9.02C0 9.57229 0.447715 10.02 1 10.02H9.02C9.57229 10.02 10.02 9.57229 10.02 9.02V1C10.02 0.447715 9.57229 0 9.02 0Z" fill="#222222"/>
<path d="M9.02 0H1C0.447715 0 0 0.447715 0 1V9.02C0 9.57229 0.447715 10.02 1 10.02H9.02C9.57229 10.02 10.02 9.57229 10.02 9.02V1C10.02 0.447715 9.57229 0 9.02 0Z" fill="#5794F2"/>
<path d="M37.05 0H29.03C28.4777 0 28.03 0.447715 28.03 1V9.02C28.03 9.57229 28.4777 10.02 29.03 10.02H37.05C37.6023 10.02 38.05 9.57229 38.05 9.02V1C38.05 0.447715 37.6023 0 37.05 0Z" fill="#222222"/>
<path d="M37.05 0H29.03C28.4777 0 28.03 0.447715 28.03 1V9.02C28.03 9.57229 28.4777 10.02 29.03 10.02H37.05C37.6023 10.02 38.05 9.57229 38.05 9.02V1C38.05 0.447715 37.6023 0 37.05 0Z" fill="#5794F2"/>
<path d="M51.07 0H43.05C42.4978 0 42.05 0.447715 42.05 1V9.02C42.05 9.57229 42.4978 10.02 43.05 10.02H51.07C51.6223 10.02 52.07 9.57229 52.07 9.02V1C52.07 0.447715 51.6223 0 51.07 0Z" fill="#222222"/>
<path d="M51.07 0H43.05C42.4978 0 42.05 0.447715 42.05 1V9.02C42.05 9.57229 42.4978 10.02 43.05 10.02H51.07C51.6223 10.02 52.07 9.57229 52.07 9.02V1C52.07 0.447715 51.6223 0 51.07 0Z" fill="#5794F2" fill-opacity="0.5"/>
<path d="M65.0801 0H57.0601C56.5078 0 56.0601 0.447715 56.0601 1V9.02C56.0601 9.57229 56.5078 10.02 57.0601 10.02H65.0801C65.6323 10.02 66.0801 9.57229 66.0801 9.02V1C66.0801 0.447715 65.6323 0 65.0801 0Z" fill="#222222"/>
<path d="M65.0801 0H57.0601C56.5078 0 56.0601 0.447715 56.0601 1V9.02C56.0601 9.57229 56.5078 10.02 57.0601 10.02H65.0801C65.6323 10.02 66.0801 9.57229 66.0801 9.02V1C66.0801 0.447715 65.6323 0 65.0801 0Z" fill="#5794F2"/>
<path d="M23.04 0H15.02C14.4677 0 14.02 0.447715 14.02 1V9.02C14.02 9.57229 14.4677 10.02 15.02 10.02H23.04C23.5923 10.02 24.04 9.57229 24.04 9.02V1C24.04 0.447715 23.5923 0 23.04 0Z" fill="#222222"/>
<path d="M23.04 0H15.02C14.4677 0 14.02 0.447715 14.02 1V9.02C14.02 9.57229 14.4677 10.02 15.02 10.02H23.04C23.5923 10.02 24.04 9.57229 24.04 9.02V1C24.04 0.447715 23.5923 0 23.04 0Z" fill="#5794F2" fill-opacity="0.6"/>
<path d="M80.09 9.02V1C80.09 0.447715 79.6423 0 79.09 0L71.07 0C70.5177 0 70.07 0.447715 70.07 1V9.02C70.07 9.57228 70.5177 10.02 71.07 10.02H79.09C79.6423 10.02 80.09 9.57228 80.09 9.02Z" fill="#222222"/>
<path d="M80.09 9.02V1C80.09 0.447715 79.6423 0 79.09 0L71.07 0C70.5177 0 70.07 0.447715 70.07 1V9.02C70.07 9.57228 70.5177 10.02 71.07 10.02H79.09C79.6423 10.02 80.09 9.57228 80.09 9.02Z" fill="#5794F2"/>
<path d="M9.02 28H1C0.447715 28 0 28.4477 0 29V37.02C0 37.5723 0.447715 38.02 1 38.02H9.02C9.57229 38.02 10.02 37.5723 10.02 37.02V29C10.02 28.4477 9.57229 28 9.02 28Z" fill="#222222"/>
<path d="M9.02 28H1C0.447715 28 0 28.4477 0 29V37.02C0 37.5723 0.447715 38.02 1 38.02H9.02C9.57229 38.02 10.02 37.5723 10.02 37.02V29C10.02 28.4477 9.57229 28 9.02 28Z" fill="#5794F2" fill-opacity="0.8"/>
<path d="M37.05 28H29.03C28.4777 28 28.03 28.4477 28.03 29V37.02C28.03 37.5723 28.4777 38.02 29.03 38.02H37.05C37.6023 38.02 38.05 37.5723 38.05 37.02V29C38.05 28.4477 37.6023 28 37.05 28Z" fill="#222222"/>
<path d="M37.05 28H29.03C28.4777 28 28.03 28.4477 28.03 29V37.02C28.03 37.5723 28.4777 38.02 29.03 38.02H37.05C37.6023 38.02 38.05 37.5723 38.05 37.02V29C38.05 28.4477 37.6023 28 37.05 28Z" fill="#5794F2" fill-opacity="0.6"/>
<path d="M51.07 28H43.05C42.4978 28 42.05 28.4477 42.05 29V37.02C42.05 37.5723 42.4978 38.02 43.05 38.02H51.07C51.6223 38.02 52.07 37.5723 52.07 37.02V29C52.07 28.4477 51.6223 28 51.07 28Z" fill="#222222"/>
<path d="M51.07 28H43.05C42.4978 28 42.05 28.4477 42.05 29V37.02C42.05 37.5723 42.4978 38.02 43.05 38.02H51.07C51.6223 38.02 52.07 37.5723 52.07 37.02V29C52.07 28.4477 51.6223 28 51.07 28Z" fill="#5794F2"/>
<path d="M65.0801 28H57.0601C56.5078 28 56.0601 28.4477 56.0601 29V37.02C56.0601 37.5723 56.5078 38.02 57.0601 38.02H65.0801C65.6323 38.02 66.0801 37.5723 66.0801 37.02V29C66.0801 28.4477 65.6323 28 65.0801 28Z" fill="#222222"/>
<path d="M65.0801 28H57.0601C56.5078 28 56.0601 28.4477 56.0601 29V37.02C56.0601 37.5723 56.5078 38.02 57.0601 38.02H65.0801C65.6323 38.02 66.0801 37.5723 66.0801 37.02V29C66.0801 28.4477 65.6323 28 65.0801 28Z" fill="#5794F2" fill-opacity="0.5"/>
<path d="M23.04 28H15.02C14.4677 28 14.02 28.4477 14.02 29V37.02C14.02 37.5723 14.4677 38.02 15.02 38.02H23.04C23.5923 38.02 24.04 37.5723 24.04 37.02V29C24.04 28.4477 23.5923 28 23.04 28Z" fill="#222222"/>
<path d="M23.04 28H15.02C14.4677 28 14.02 28.4477 14.02 29V37.02C14.02 37.5723 14.4677 38.02 15.02 38.02H23.04C23.5923 38.02 24.04 37.5723 24.04 37.02V29C24.04 28.4477 23.5923 28 23.04 28Z" fill="#5794F2" fill-opacity="0.5"/>
<path d="M80.09 37.02V29C80.09 28.4477 79.6423 28 79.09 28H71.07C70.5177 28 70.07 28.4477 70.07 29V37.02C70.07 37.5723 70.5177 38.02 71.07 38.02H79.09C79.6423 38.02 80.09 37.5723 80.09 37.02Z" fill="#222222"/>
<path d="M80.09 37.02V29C80.09 28.4477 79.6423 28 79.09 28H71.07C70.5177 28 70.07 28.4477 70.07 29V37.02C70.07 37.5723 70.5177 38.02 71.07 38.02H79.09C79.6423 38.02 80.09 37.5723 80.09 37.02Z" fill="#5794F2"/>
<path d="M9.02 42H1C0.447715 42 0 42.4477 0 43V51.02C0 51.5723 0.447715 52.02 1 52.02H9.02C9.57229 52.02 10.02 51.5723 10.02 51.02V43C10.02 42.4477 9.57229 42 9.02 42Z" fill="#222222"/>
<path d="M9.02 42H1C0.447715 42 0 42.4477 0 43V51.02C0 51.5723 0.447715 52.02 1 52.02H9.02C9.57229 52.02 10.02 51.5723 10.02 51.02V43C10.02 42.4477 9.57229 42 9.02 42Z" fill="#5794F2"/>
<path d="M37.05 42H29.03C28.4777 42 28.03 42.4477 28.03 43V51.02C28.03 51.5723 28.4777 52.02 29.03 52.02H37.05C37.6023 52.02 38.05 51.5723 38.05 51.02V43C38.05 42.4477 37.6023 42 37.05 42Z" fill="#222222"/>
<path d="M37.05 42H29.03C28.4777 42 28.03 42.4477 28.03 43V51.02C28.03 51.5723 28.4777 52.02 29.03 52.02H37.05C37.6023 52.02 38.05 51.5723 38.05 51.02V43C38.05 42.4477 37.6023 42 37.05 42Z" fill="#5794F2"/>
<path d="M51.07 42H43.05C42.4978 42 42.05 42.4477 42.05 43V51.02C42.05 51.5723 42.4978 52.02 43.05 52.02H51.07C51.6223 52.02 52.07 51.5723 52.07 51.02V43C52.07 42.4477 51.6223 42 51.07 42Z" fill="#222222"/>
<path d="M51.07 42H43.05C42.4978 42 42.05 42.4477 42.05 43V51.02C42.05 51.5723 42.4978 52.02 43.05 52.02H51.07C51.6223 52.02 52.07 51.5723 52.07 51.02V43C52.07 42.4477 51.6223 42 51.07 42Z" fill="#5794F2" fill-opacity="0.5"/>
<path d="M65.0801 42H57.0601C56.5078 42 56.0601 42.4477 56.0601 43V51.02C56.0601 51.5723 56.5078 52.02 57.0601 52.02H65.0801C65.6323 52.02 66.0801 51.5723 66.0801 51.02V43C66.0801 42.4477 65.6323 42 65.0801 42Z" fill="#222222"/>
<path d="M65.0801 42H57.0601C56.5078 42 56.0601 42.4477 56.0601 43V51.02C56.0601 51.5723 56.5078 52.02 57.0601 52.02H65.0801C65.6323 52.02 66.0801 51.5723 66.0801 51.02V43C66.0801 42.4477 65.6323 42 65.0801 42Z" fill="#5794F2" fill-opacity="0.6"/>
<path d="M23.04 42H15.02C14.4677 42 14.02 42.4477 14.02 43V51.02C14.02 51.5723 14.4677 52.02 15.02 52.02H23.04C23.5923 52.02 24.04 51.5723 24.04 51.02V43C24.04 42.4477 23.5923 42 23.04 42Z" fill="#222222"/>
<path d="M23.04 42H15.02C14.4677 42 14.02 42.4477 14.02 43V51.02C14.02 51.5723 14.4677 52.02 15.02 52.02H23.04C23.5923 52.02 24.04 51.5723 24.04 51.02V43C24.04 42.4477 23.5923 42 23.04 42Z" fill="#5794F2" fill-opacity="0.5"/>
<path d="M80.09 51.02V43C80.09 42.4477 79.6423 42 79.09 42H71.07C70.5177 42 70.07 42.4477 70.07 43V51.02C70.07 51.5723 70.5177 52.02 71.07 52.02H79.09C79.6423 52.02 80.09 51.5723 80.09 51.02Z" fill="#222222"/>
<path d="M80.09 51.02V43C80.09 42.4477 79.6423 42 79.09 42H71.07C70.5177 42 70.07 42.4477 70.07 43V51.02C70.07 51.5723 70.5177 52.02 71.07 52.02H79.09C79.6423 52.02 80.09 51.5723 80.09 51.02Z" fill="#5794F2"/>
<path d="M9.02 56H1C0.447715 56 0 56.4477 0 57V65.02C0 65.5723 0.447715 66.02 1 66.02H9.02C9.57229 66.02 10.02 65.5723 10.02 65.02V57C10.02 56.4477 9.57229 56 9.02 56Z" fill="#222222"/>
<path d="M9.02 56H1C0.447715 56 0 56.4477 0 57V65.02C0 65.5723 0.447715 66.02 1 66.02H9.02C9.57229 66.02 10.02 65.5723 10.02 65.02V57C10.02 56.4477 9.57229 56 9.02 56Z" fill="#5794F2"/>
<path d="M37.05 56H29.03C28.4777 56 28.03 56.4477 28.03 57V65.02C28.03 65.5723 28.4777 66.02 29.03 66.02H37.05C37.6023 66.02 38.05 65.5723 38.05 65.02V57C38.05 56.4477 37.6023 56 37.05 56Z" fill="#222222"/>
<path d="M37.05 56H29.03C28.4777 56 28.03 56.4477 28.03 57V65.02C28.03 65.5723 28.4777 66.02 29.03 66.02H37.05C37.6023 66.02 38.05 65.5723 38.05 65.02V57C38.05 56.4477 37.6023 56 37.05 56Z" fill="#5794F2"/>
<path d="M51.07 56H43.05C42.4978 56 42.05 56.4477 42.05 57V65.02C42.05 65.5723 42.4978 66.02 43.05 66.02H51.07C51.6223 66.02 52.07 65.5723 52.07 65.02V57C52.07 56.4477 51.6223 56 51.07 56Z" fill="#222222"/>
<path d="M51.07 56H43.05C42.4978 56 42.05 56.4477 42.05 57V65.02C42.05 65.5723 42.4978 66.02 43.05 66.02H51.07C51.6223 66.02 52.07 65.5723 52.07 65.02V57C52.07 56.4477 51.6223 56 51.07 56Z" fill="#5794F2"/>
<path d="M65.0801 56H57.0601C56.5078 56 56.0601 56.4477 56.0601 57V65.02C56.0601 65.5723 56.5078 66.02 57.0601 66.02H65.0801C65.6323 66.02 66.0801 65.5723 66.0801 65.02V57C66.0801 56.4477 65.6323 56 65.0801 56Z" fill="#222222"/>
<path d="M65.0801 56H57.0601C56.5078 56 56.0601 56.4477 56.0601 57V65.02C56.0601 65.5723 56.5078 66.02 57.0601 66.02H65.0801C65.6323 66.02 66.0801 65.5723 66.0801 65.02V57C66.0801 56.4477 65.6323 56 65.0801 56Z" fill="#5794F2"/>
<path d="M23.04 56H15.02C14.4677 56 14.02 56.4477 14.02 57V65.02C14.02 65.5723 14.4677 66.02 15.02 66.02H23.04C23.5923 66.02 24.04 65.5723 24.04 65.02V57C24.04 56.4477 23.5923 56 23.04 56Z" fill="#222222"/>
<path d="M23.04 56H15.02C14.4677 56 14.02 56.4477 14.02 57V65.02C14.02 65.5723 14.4677 66.02 15.02 66.02H23.04C23.5923 66.02 24.04 65.5723 24.04 65.02V57C24.04 56.4477 23.5923 56 23.04 56Z" fill="#5794F2" fill-opacity="0.6"/>
<path d="M80.09 65.02V57C80.09 56.4477 79.6423 56 79.09 56H71.07C70.5177 56 70.07 56.4477 70.07 57V65.02C70.07 65.5723 70.5177 66.02 71.07 66.02H79.09C79.6423 66.02 80.09 65.5723 80.09 65.02Z" fill="#222222"/>
<path d="M80.09 65.02V57C80.09 56.4477 79.6423 56 79.09 56H71.07C70.5177 56 70.07 56.4477 70.07 57V65.02C70.07 65.5723 70.5177 66.02 71.07 66.02H79.09C79.6423 66.02 80.09 65.5723 80.09 65.02Z" fill="#5794F2" fill-opacity="0.8"/>
<path d="M9.02 70H1C0.447715 70 0 70.4477 0 71V79.02C0 79.5723 0.447715 80.02 1 80.02H9.02C9.57229 80.02 10.02 79.5723 10.02 79.02V71C10.02 70.4477 9.57229 70 9.02 70Z" fill="#222222"/>
<path d="M9.02 70H1C0.447715 70 0 70.4477 0 71V79.02C0 79.5723 0.447715 80.02 1 80.02H9.02C9.57229 80.02 10.02 79.5723 10.02 79.02V71C10.02 70.4477 9.57229 70 9.02 70Z" fill="#5794F2" fill-opacity="0.5"/>
<path d="M37.05 70H29.03C28.4777 70 28.03 70.4477 28.03 71V79.02C28.03 79.5723 28.4777 80.02 29.03 80.02H37.05C37.6023 80.02 38.05 79.5723 38.05 79.02V71C38.05 70.4477 37.6023 70 37.05 70Z" fill="#222222"/>
<path d="M37.05 70H29.03C28.4777 70 28.03 70.4477 28.03 71V79.02C28.03 79.5723 28.4777 80.02 29.03 80.02H37.05C37.6023 80.02 38.05 79.5723 38.05 79.02V71C38.05 70.4477 37.6023 70 37.05 70Z" fill="#5794F2" fill-opacity="0.6"/>
<path d="M51.07 70H43.05C42.4978 70 42.05 70.4477 42.05 71V79.02C42.05 79.5723 42.4978 80.02 43.05 80.02H51.07C51.6223 80.02 52.07 79.5723 52.07 79.02V71C52.07 70.4477 51.6223 70 51.07 70Z" fill="#222222"/>
<path d="M51.07 70H43.05C42.4978 70 42.05 70.4477 42.05 71V79.02C42.05 79.5723 42.4978 80.02 43.05 80.02H51.07C51.6223 80.02 52.07 79.5723 52.07 79.02V71C52.07 70.4477 51.6223 70 51.07 70Z" fill="#5794F2" fill-opacity="0.5"/>
<path d="M65.0801 70H57.0601C56.5078 70 56.0601 70.4477 56.0601 71V79.02C56.0601 79.5723 56.5078 80.02 57.0601 80.02H65.0801C65.6323 80.02 66.0801 79.5723 66.0801 79.02V71C66.0801 70.4477 65.6323 70 65.0801 70Z" fill="#222222"/>
<path d="M65.0801 70H57.0601C56.5078 70 56.0601 70.4477 56.0601 71V79.02C56.0601 79.5723 56.5078 80.02 57.0601 80.02H65.0801C65.6323 80.02 66.0801 79.5723 66.0801 79.02V71C66.0801 70.4477 65.6323 70 65.0801 70Z" fill="#5794F2" fill-opacity="0.5"/>
<path d="M23.04 70H15.02C14.4677 70 14.02 70.4477 14.02 71V79.02C14.02 79.5723 14.4677 80.02 15.02 80.02H23.04C23.5923 80.02 24.04 79.5723 24.04 79.02V71C24.04 70.4477 23.5923 70 23.04 70Z" fill="#222222"/>
<path d="M23.04 70H15.02C14.4677 70 14.02 70.4477 14.02 71V79.02C14.02 79.5723 14.4677 80.02 15.02 80.02H23.04C23.5923 80.02 24.04 79.5723 24.04 79.02V71C24.04 70.4477 23.5923 70 23.04 70Z" fill="#5794F2"/>
<path d="M80.09 79.02V71C80.09 70.4477 79.6423 70 79.09 70H71.07C70.5177 70 70.07 70.4477 70.07 71V79.02C70.07 79.5723 70.5177 80.02 71.07 80.02H79.09C79.6423 80.02 80.09 79.5723 80.09 79.02Z" fill="#222222"/>
<path d="M80.09 79.02V71C80.09 70.4477 79.6423 70 79.09 70H71.07C70.5177 70 70.07 70.4477 70.07 71V79.02C70.07 79.5723 70.5177 80.02 71.07 80.02H79.09C79.6423 80.02 80.09 79.5723 80.09 79.02Z" fill="#5794F2" fill-opacity="0.6"/>
<path d="M9.02 14H1C0.447715 14 0 14.4477 0 15V23.02C0 23.5723 0.447715 24.02 1 24.02H9.02C9.57229 24.02 10.02 23.5723 10.02 23.02V15C10.02 14.4477 9.57229 14 9.02 14Z" fill="#222222"/>
<path d="M9.02 14H1C0.447715 14 0 14.4477 0 15V23.02C0 23.5723 0.447715 24.02 1 24.02H9.02C9.57229 24.02 10.02 23.5723 10.02 23.02V15C10.02 14.4477 9.57229 14 9.02 14Z" fill="#5794F2"/>
<path d="M37.05 14H29.03C28.4777 14 28.03 14.4477 28.03 15V23.02C28.03 23.5723 28.4777 24.02 29.03 24.02H37.05C37.6023 24.02 38.05 23.5723 38.05 23.02V15C38.05 14.4477 37.6023 14 37.05 14Z" fill="#222222"/>
<path d="M37.05 14H29.03C28.4777 14 28.03 14.4477 28.03 15V23.02C28.03 23.5723 28.4777 24.02 29.03 24.02H37.05C37.6023 24.02 38.05 23.5723 38.05 23.02V15C38.05 14.4477 37.6023 14 37.05 14Z" fill="#5794F2" fill-opacity="0.6"/>
<path d="M51.07 14H43.05C42.4978 14 42.05 14.4477 42.05 15V23.02C42.05 23.5723 42.4978 24.02 43.05 24.02H51.07C51.6223 24.02 52.07 23.5723 52.07 23.02V15C52.07 14.4477 51.6223 14 51.07 14Z" fill="#222222"/>
<path d="M51.07 14H43.05C42.4978 14 42.05 14.4477 42.05 15V23.02C42.05 23.5723 42.4978 24.02 43.05 24.02H51.07C51.6223 24.02 52.07 23.5723 52.07 23.02V15C52.07 14.4477 51.6223 14 51.07 14Z" fill="#5794F2"/>
<path d="M65.0801 14H57.0601C56.5078 14 56.0601 14.4477 56.0601 15V23.02C56.0601 23.5723 56.5078 24.02 57.0601 24.02H65.0801C65.6323 24.02 66.0801 23.5723 66.0801 23.02V15C66.0801 14.4477 65.6323 14 65.0801 14Z" fill="#222222"/>
<path d="M65.0801 14H57.0601C56.5078 14 56.0601 14.4477 56.0601 15V23.02C56.0601 23.5723 56.5078 24.02 57.0601 24.02H65.0801C65.6323 24.02 66.0801 23.5723 66.0801 23.02V15C66.0801 14.4477 65.6323 14 65.0801 14Z" fill="#5794F2" fill-opacity="0.6"/>
<path d="M23.04 14H15.02C14.4677 14 14.02 14.4477 14.02 15V23.02C14.02 23.5723 14.4677 24.02 15.02 24.02H23.04C23.5923 24.02 24.04 23.5723 24.04 23.02V15C24.04 14.4477 23.5923 14 23.04 14Z" fill="#222222"/>
<path d="M23.04 14H15.02C14.4677 14 14.02 14.4477 14.02 15V23.02C14.02 23.5723 14.4677 24.02 15.02 24.02H23.04C23.5923 24.02 24.04 23.5723 24.04 23.02V15C24.04 14.4477 23.5923 14 23.04 14Z" fill="#5794F2" fill-opacity="0.5"/>
<path d="M80.09 23.02V15C80.09 14.4477 79.6423 14 79.09 14H71.07C70.5177 14 70.07 14.4477 70.07 15V23.02C70.07 23.5723 70.5177 24.02 71.07 24.02H79.09C79.6423 24.02 80.09 23.5723 80.09 23.02Z" fill="#222222"/>
<path d="M80.09 23.02V15C80.09 14.4477 79.6423 14 79.09 14H71.07C70.5177 14 70.07 14.4477 70.07 15V23.02C70.07 23.5723 70.5177 24.02 71.07 24.02H79.09C79.6423 24.02 80.09 23.5723 80.09 23.02Z" fill="#5794F2"/>
</g>
<defs>
<filter id="filter0_i_2024_65" x="0" y="0" width="80.09" height="80.09" filterUnits="userSpaceOnUse" color-interpolation-filters="sRGB">
<feFlood flood-opacity="0" result="BackgroundImageFix"/>
<feBlend mode="normal" in="SourceGraphic" in2="BackgroundImageFix" result="shape"/>
<feColorMatrix in="SourceAlpha" type="matrix" values="0 0 0 0 0 0 0 0 0 0 0 0 0 0 0 0 0 0 127 0" result="hardAlpha"/>
<feOffset/>
<feGaussianBlur stdDeviation="2"/>
<feComposite in2="hardAlpha" operator="arithmetic" k2="-1" k3="1"/>
<feColorMatrix type="matrix" values="0 0 0 0 0 0 0 0 0 0 0 0 0 0 0 0 0 0 0.35 0"/>
<feBlend mode="normal" in2="shape" result="effect1_innerShadow_2024_65"/>
</filter>
<clipPath id="clip0_2024_65">
<rect width="80.09" height="80.09" fill="white"/>
</clipPath>
</defs>
</svg>
